# Blender v2.78 (sub 0) OBJ File: 'mdl_logo.blend'
# www.blender.org
mtllib mdl_logo_000047.mtl
o Plane_Plane.001
v -2.000000 -2.000000 0.115373
v 2.000000 -2.000000 0.473964
v -2.000000 2.000000 0.115373
v 2.000000 2.000000 0.473964
v -2.000000 -0.000000 0.115373
v 0.000000 -2.000000 0.029638
v 2.000000 -0.000000 0.473964
v 0.000000 2.000000 0.029638
v 0.000000 -0.000000 0.029638
v -2.000000 -1.000000 0.109787
v 1.000000 -2.000000 0.186627
v 2.000000 1.000000 0.468378
v -1.000000 2.000000 0.016883
v -2.000000 1.000000 0.109787
v -1.000000 -2.000000 0.016883
v 2.000000 -1.000000 0.468378
v 1.000000 2.000000 0.186627
v 0.000000 1.000000 0.024052
v 0.000000 -1.000000 0.024052
v -1.000000 -0.000000 0.016883
v 1.000000 -0.000000 0.186627
v 1.000000 -1.000000 0.181041
v -1.000000 -1.000000 0.011297
v -1.000000 1.000000 0.011297
v 1.000000 1.000000 0.181041
v -2.000000 -1.500000 0.109787
v 1.500000 -2.000000 0.340277
v 2.000000 1.500000 0.473964
v -1.500000 2.000000 0.044388
v -2.000000 0.500000 0.109787
v -0.500000 -2.000000 0.012441
v 2.000000 -0.500000 0.473964
v 0.500000 2.000000 0.080183
v 0.000000 1.500000 0.029638
v 0.000000 -0.500000 0.029638
v -1.500000 -0.000000 0.044388
v 0.500000 -0.000000 0.080183
v -2.000000 -0.500000 0.115373
v 0.500000 -2.000000 0.080183
v 2.000000 0.500000 0.468378
v -0.500000 2.000000 0.012442
v -2.000000 1.500000 0.115373
v -1.500000 -2.000000 0.044388
v 2.000000 -1.500000 0.468378
v 1.500000 2.000000 0.340277
v 0.000000 0.500000 0.024052
v 0.000000 -1.500000 0.024052
v -0.500000 -0.000000 0.012442
v 1.500000 -0.000000 0.340277
v 1.000000 -0.500000 0.186627
v 1.000000 -1.500000 0.181041
v 0.500000 -1.000000 0.074598
v 1.500000 -1.000000 0.334691
v -1.000000 -0.500000 0.016883
v -1.000000 -1.500000 0.011297
v -1.500000 -1.000000 0.038802
v -0.500000 -1.000000 0.006856
v -1.000000 1.500000 0.016883
v -1.000000 0.500000 0.011297
v -1.500000 1.000000 0.038802
v -0.500000 1.000000 0.006856
v 1.000000 1.500000 0.186627
v 1.000000 0.500000 0.181041
v 0.500000 1.000000 0.074598
v 1.500000 1.000000 0.334691
v 1.500000 0.500000 0.334691
v 0.500000 0.500000 0.074598
v 0.500000 1.500000 0.080183
v -0.500000 0.500000 0.006856
v -1.500000 0.500000 0.038802
v -1.500000 1.500000 0.044388
v -0.500000 -1.500000 0.006856
v -1.500000 -1.500000 0.038802
v -1.500000 -0.500000 0.044388
v 1.500000 -1.500000 0.334691
v 0.500000 -1.500000 0.074598
v 0.500000 -0.500000 0.080183
v 1.500000 -0.500000 0.340277
v -0.500000 -0.500000 0.012441
v -0.500000 1.500000 0.012442
v 1.500000 1.500000 0.340277
vt 0.1253 0.1251
vt 0.0004 0.1250
vt 0.0004 0.0001
vt 0.1254 0.0001
vt 0.6251 0.1252
vt 0.5001 0.1252
vt 0.5002 0.0003
vt 0.6251 0.0003
vt 0.6249 0.6250
vt 0.5000 0.6249
vt 0.5000 0.5000
vt 0.6249 0.5000
vt 0.1252 0.6248
vt 0.0002 0.6248
vt 0.0003 0.4998
vt 0.1252 0.4999
vt 0.3750 0.6249
vt 0.2501 0.6248
vt 0.2501 0.4999
vt 0.3751 0.5000
vt 0.3749 0.8748
vt 0.2500 0.8747
vt 0.2500 0.7498
vt 0.3750 0.7498
vt 0.1251 0.8747
vt 0.0001 0.8746
vt 0.0002 0.7497
vt 0.1251 0.7497
vt 0.8748 0.6251
vt 0.7498 0.6250
vt 0.7499 0.5001
vt 0.8748 0.5001
vt 0.8747 0.8749
vt 0.7497 0.8749
vt 0.7498 0.7500
vt 0.8747 0.7500
vt 0.6248 0.8748
vt 0.4999 0.8748
vt 0.4999 0.7499
vt 0.6248 0.7499
vt 0.8749 0.1253
vt 0.7500 0.1253
vt 0.7500 0.0004
vt 0.8750 0.0004
vt 0.8748 0.3752
vt 0.7499 0.3752
vt 0.7500 0.2502
vt 0.8749 0.2503
vt 0.6250 0.3751
vt 0.5000 0.3751
vt 0.5001 0.2501
vt 0.6250 0.2502
vt 0.3752 0.1252
vt 0.2503 0.1251
vt 0.2503 0.0002
vt 0.3752 0.0002
vt 0.3751 0.3750
vt 0.2502 0.3750
vt 0.2502 0.2500
vt 0.3752 0.2501
vt 0.1252 0.3749
vt 0.0003 0.3749
vt 0.0004 0.2500
vt 0.1253 0.2500
vt 0.9998 0.3752
vt 0.9998 0.2503
vt 0.9997 0.5002
vt 0.9999 0.1254
vt 0.9999 0.0004
vt 0.7497 0.9998
vt 0.6248 0.9998
vt 0.4998 0.9997
vt 0.9996 0.8750
vt 0.9996 0.7500
vt 0.9996 0.9999
vt 0.8746 0.9999
vt 0.9997 0.6251
vt 0.2500 0.9996
vt 0.1250 0.9996
vt 0.0001 0.9996
vt 0.3749 0.9997
vn -0.2583 -0.0000 0.9661
vn -0.0344 -0.0000 0.9994
vn -0.2082 0.0000 0.9781
vn 0.0549 -0.0000 0.9985
vn -0.2937 0.0000 0.9559
vn -0.2937 0.0107 0.9558
vn -0.2583 0.0108 0.9660
vn -0.1006 -0.0000 0.9949
vn -0.1006 0.0111 0.9949
vn -0.2082 0.0109 0.9780
vn -0.1006 -0.0111 0.9949
vn -0.2082 -0.0109 0.9780
vn 0.0089 -0.0000 1.0000
vn 0.0089 0.0112 0.9999
vn -0.0344 0.0112 0.9993
vn 0.1406 -0.0000 0.9901
vn 0.1406 0.0111 0.9900
vn 0.0549 0.0112 0.9984
vn 0.1406 -0.0111 0.9900
vn 0.0549 -0.0112 0.9984
vn -0.2937 -0.0107 0.9558
vn -0.2583 -0.0108 0.9660
vn 0.0089 -0.0112 0.9999
vn -0.0344 -0.0112 0.9993
usemtl None
s off
f 81/1/1 28/2/1 4/3/1 45/4/1
f 80/5/2 34/6/2 8/7/2 41/8/2
f 79/9/2 35/10/2 9/11/2 48/12/2
f 78/13/1 32/14/1 7/15/1 49/16/1
f 77/17/3 50/18/3 21/19/3 37/20/3
f 76/21/3 51/22/3 22/23/3 52/24/3
f 75/25/1 44/26/1 16/27/1 53/28/1
f 74/29/4 54/30/4 20/31/4 36/32/4
f 73/33/4 55/34/4 23/35/4 56/36/4
f 72/37/2 47/38/2 19/39/2 57/40/2
f 71/41/4 58/42/4 13/43/4 29/44/4
f 70/45/4 59/46/4 24/47/4 60/48/4
f 69/49/2 46/50/2 18/51/2 61/52/2
f 68/53/3 62/54/3 17/55/3 33/56/3
f 67/57/3 63/58/3 25/59/3 64/60/3
f 66/61/1 40/62/1 12/63/1 65/64/1
f 63/58/5 66/61/5 65/64/5 25/59/5
f 21/19/6 49/16/6 66/61/6 63/58/6
f 49/16/7 7/15/7 40/62/7 66/61/7
f 46/50/8 67/57/8 64/60/8 18/51/8
f 9/11/9 37/20/9 67/57/9 46/50/9
f 37/20/10 21/19/10 63/58/10 67/57/10
f 34/6/8 68/53/8 33/56/8 8/7/8
f 18/51/11 64/60/11 68/53/11 34/6/11
f 64/60/12 25/59/12 62/54/12 68/53/12
f 59/46/13 69/49/13 61/52/13 24/47/13
f 20/31/14 48/12/14 69/49/14 59/46/14
f 48/12/15 9/11/15 46/50/15 69/49/15
f 30/65/16 70/45/16 60/48/16 14/66/16
f 5/67/17 36/32/17 70/45/17 30/65/17
f 36/32/18 20/31/18 59/46/18 70/45/18
f 42/68/16 71/41/16 29/44/16 3/69/16
f 14/66/19 60/48/19 71/41/19 42/68/19
f 60/48/20 24/47/20 58/42/20 71/41/20
f 55/34/13 72/37/13 57/40/13 23/35/13
f 15/70/14 31/71/14 72/37/14 55/34/14
f 31/71/15 6/72/15 47/38/15 72/37/15
f 26/73/16 73/33/16 56/36/16 10/74/16
f 1/75/17 43/76/17 73/33/17 26/73/17
f 43/76/18 15/70/18 55/34/18 73/33/18
f 38/77/16 74/29/16 36/32/16 5/67/16
f 10/74/19 56/36/19 74/29/19 38/77/19
f 56/36/20 23/35/20 54/30/20 74/29/20
f 51/22/5 75/25/5 53/28/5 22/23/5
f 11/78/6 27/79/6 75/25/6 51/22/6
f 27/79/7 2/80/7 44/26/7 75/25/7
f 47/38/8 76/21/8 52/24/8 19/39/8
f 6/72/9 39/81/9 76/21/9 47/38/9
f 39/81/10 11/78/10 51/22/10 76/21/10
f 35/10/8 77/17/8 37/20/8 9/11/8
f 19/39/11 52/24/11 77/17/11 35/10/11
f 52/24/12 22/23/12 50/18/12 77/17/12
f 50/18/5 78/13/5 49/16/5 21/19/5
f 22/23/21 53/28/21 78/13/21 50/18/21
f 53/28/22 16/27/22 32/14/22 78/13/22
f 54/30/13 79/9/13 48/12/13 20/31/13
f 23/35/23 57/40/23 79/9/23 54/30/23
f 57/40/24 19/39/24 35/10/24 79/9/24
f 58/42/13 80/5/13 41/8/13 13/43/13
f 24/47/23 61/52/23 80/5/23 58/42/23
f 61/52/24 18/51/24 34/6/24 80/5/24
f 62/54/5 81/1/5 45/4/5 17/55/5
f 25/59/21 65/64/21 81/1/21 62/54/21
f 65/64/22 12/63/22 28/2/22 81/1/22
