# Blender v2.78 (sub 0) OBJ File: 'mdl_logo.blend'
# www.blender.org
mtllib mdl_logo_000056.mtl
o Plane_Plane.001
v -2.000000 -2.000000 0.230389
v 2.000000 -2.000000 0.356798
v -2.000000 2.000000 0.230389
v 2.000000 2.000000 0.356798
v -2.000000 -0.000000 0.230389
v 0.000000 -2.000000 0.014037
v 2.000000 -0.000000 0.356798
v 0.000000 2.000000 0.014037
v 0.000000 -0.000000 0.014037
v -2.000000 -1.000000 0.219264
v 1.000000 -2.000000 0.088770
v 2.000000 1.000000 0.345673
v -1.000000 2.000000 0.040815
v -2.000000 1.000000 0.219264
v -1.000000 -2.000000 0.040815
v 2.000000 -1.000000 0.345673
v 1.000000 2.000000 0.088770
v 0.000000 1.000000 0.002913
v 0.000000 -1.000000 0.002913
v -1.000000 -0.000000 0.040815
v 1.000000 -0.000000 0.088770
v 1.000000 -1.000000 0.077646
v -1.000000 -1.000000 0.029690
v -1.000000 1.000000 0.029690
v 1.000000 1.000000 0.077646
v -2.000000 -1.500000 0.227584
v 1.500000 -2.000000 0.201209
v 2.000000 1.500000 0.353993
v -1.500000 2.000000 0.106354
v -2.000000 0.500000 0.227584
v -0.500000 -2.000000 0.016241
v 2.000000 -0.500000 0.353993
v 0.500000 2.000000 0.033467
v 0.000000 1.500000 0.011233
v 0.000000 -0.500000 0.011232
v -1.500000 -0.000000 0.106354
v 0.500000 -0.000000 0.033467
v -2.000000 -0.500000 0.227584
v 0.500000 -2.000000 0.033467
v 2.000000 0.500000 0.353993
v -0.500000 2.000000 0.016241
v -2.000000 1.500000 0.227584
v -1.500000 -2.000000 0.106354
v 2.000000 -1.500000 0.353993
v 1.500000 2.000000 0.201209
v 0.000000 0.500000 0.011233
v 0.000000 -1.500000 0.011232
v -0.500000 -0.000000 0.016241
v 1.500000 -0.000000 0.201209
v 1.000000 -0.500000 0.085965
v 1.000000 -1.500000 0.085965
v 0.500000 -1.000000 0.022343
v 1.500000 -1.000000 0.190085
v -1.000000 -0.500000 0.038010
v -1.000000 -1.500000 0.038010
v -1.500000 -1.000000 0.095229
v -0.500000 -1.000000 0.005116
v -1.000000 1.500000 0.038010
v -1.000000 0.500000 0.038010
v -1.500000 1.000000 0.095230
v -0.500000 1.000000 0.005116
v 1.000000 1.500000 0.085966
v 1.000000 0.500000 0.085965
v 0.500000 1.000000 0.022343
v 1.500000 1.000000 0.190085
v 1.500000 0.500000 0.198405
v 0.500000 0.500000 0.030663
v 0.500000 1.500000 0.030663
v -0.500000 0.500000 0.013436
v -1.500000 0.500000 0.103549
v -1.500000 1.500000 0.103549
v -0.500000 -1.500000 0.013436
v -1.500000 -1.500000 0.103549
v -1.500000 -0.500000 0.103549
v 1.500000 -1.500000 0.198404
v 0.500000 -1.500000 0.030663
v 0.500000 -0.500000 0.030663
v 1.500000 -0.500000 0.198405
v -0.500000 -0.500000 0.013436
v -0.500000 1.500000 0.013436
v 1.500000 1.500000 0.198405
vt 0.1253 0.1251
vt 0.0004 0.1250
vt 0.0004 0.0001
vt 0.1254 0.0001
vt 0.6251 0.1252
vt 0.5001 0.1252
vt 0.5002 0.0003
vt 0.6251 0.0003
vt 0.6249 0.6250
vt 0.5000 0.6249
vt 0.5000 0.5000
vt 0.6249 0.5000
vt 0.1252 0.6248
vt 0.0002 0.6248
vt 0.0003 0.4998
vt 0.1252 0.4999
vt 0.3750 0.6249
vt 0.2501 0.6248
vt 0.2501 0.4999
vt 0.3751 0.5000
vt 0.3749 0.8748
vt 0.2500 0.8747
vt 0.2500 0.7498
vt 0.3750 0.7498
vt 0.1251 0.8747
vt 0.0001 0.8746
vt 0.0002 0.7497
vt 0.1251 0.7497
vt 0.8748 0.6251
vt 0.7498 0.6250
vt 0.7499 0.5001
vt 0.8748 0.5001
vt 0.8747 0.8749
vt 0.7497 0.8749
vt 0.7498 0.7500
vt 0.8747 0.7500
vt 0.6248 0.8748
vt 0.4999 0.8748
vt 0.4999 0.7499
vt 0.6248 0.7499
vt 0.8749 0.1253
vt 0.7500 0.1253
vt 0.7500 0.0004
vt 0.8750 0.0004
vt 0.8748 0.3752
vt 0.7499 0.3752
vt 0.7500 0.2502
vt 0.8749 0.2503
vt 0.6250 0.3751
vt 0.5000 0.3751
vt 0.5001 0.2501
vt 0.6250 0.2502
vt 0.3752 0.1252
vt 0.2503 0.1251
vt 0.2503 0.0002
vt 0.3752 0.0002
vt 0.3751 0.3750
vt 0.2502 0.3750
vt 0.2502 0.2500
vt 0.3752 0.2501
vt 0.1252 0.3749
vt 0.0003 0.3749
vt 0.0004 0.2500
vt 0.1253 0.2500
vt 0.9998 0.3752
vt 0.9998 0.2503
vt 0.9997 0.5002
vt 0.9999 0.1254
vt 0.9999 0.0004
vt 0.7497 0.9998
vt 0.6248 0.9998
vt 0.4998 0.9997
vt 0.9996 0.8750
vt 0.9996 0.7500
vt 0.9996 0.9999
vt 0.8746 0.9999
vt 0.9997 0.6251
vt 0.2500 0.9996
vt 0.1250 0.9996
vt 0.0001 0.9996
vt 0.3749 0.9997
vn -0.2971 -0.0054 0.9548
vn 0.0044 -0.0056 1.0000
vn -0.1099 -0.0056 0.9939
vn -0.1099 0.0165 0.9938
vn -0.2971 0.0159 0.9547
vn 0.1300 -0.0056 0.9915
vn 0.1299 0.0165 0.9914
vn 0.0044 0.0166 0.9999
vn -0.2194 0.0162 0.9755
vn -0.2194 0.0055 0.9756
vn -0.2971 0.0054 0.9548
vn -0.0388 0.0166 0.9991
vn -0.0388 0.0056 0.9992
vn -0.1099 0.0056 0.9939
vn -0.0388 -0.0056 0.9992
vn -0.0388 -0.0166 0.9991
vn -0.1099 -0.0165 0.9938
vn 0.0491 0.0166 0.9987
vn 0.0491 0.0056 0.9988
vn 0.0044 0.0056 1.0000
vn 0.2407 0.0161 0.9705
vn 0.2408 0.0054 0.9706
vn 0.1300 0.0056 0.9915
vn 0.2408 -0.0054 0.9706
vn 0.2407 -0.0161 0.9705
vn 0.1299 -0.0165 0.9914
vn -0.2194 -0.0055 0.9756
vn -0.2194 -0.0162 0.9755
vn -0.2971 -0.0159 0.9547
vn 0.0491 -0.0056 0.9988
vn 0.0491 -0.0166 0.9987
vn 0.0044 -0.0166 0.9999
usemtl None
s off
f 81/1/1 28/2/1 4/3/1 45/4/1
f 80/5/2 34/6/2 8/7/2 41/8/2
f 79/9/2 35/10/2 9/11/2 48/12/2
f 78/13/1 32/14/1 7/15/1 49/16/1
f 77/17/3 50/18/3 21/19/3 37/20/3
f 76/21/4 51/22/4 22/23/4 52/24/4
f 75/25/5 44/26/5 16/27/5 53/28/5
f 74/29/6 54/30/6 20/31/6 36/32/6
f 73/33/7 55/34/7 23/35/7 56/36/7
f 72/37/8 47/38/8 19/39/8 57/40/8
f 71/41/6 58/42/6 13/43/6 29/44/6
f 70/45/7 59/46/7 24/47/7 60/48/7
f 69/49/8 46/50/8 18/51/8 61/52/8
f 68/53/3 62/54/3 17/55/3 33/56/3
f 67/57/4 63/58/4 25/59/4 64/60/4
f 66/61/5 40/62/5 12/63/5 65/64/5
f 63/58/9 66/61/9 65/64/9 25/59/9
f 21/19/10 49/16/10 66/61/10 63/58/10
f 49/16/11 7/15/11 40/62/11 66/61/11
f 46/50/12 67/57/12 64/60/12 18/51/12
f 9/11/13 37/20/13 67/57/13 46/50/13
f 37/20/14 21/19/14 63/58/14 67/57/14
f 34/6/15 68/53/15 33/56/15 8/7/15
f 18/51/16 64/60/16 68/53/16 34/6/16
f 64/60/17 25/59/17 62/54/17 68/53/17
f 59/46/18 69/49/18 61/52/18 24/47/18
f 20/31/19 48/12/19 69/49/19 59/46/19
f 48/12/20 9/11/20 46/50/20 69/49/20
f 30/65/21 70/45/21 60/48/21 14/66/21
f 5/67/22 36/32/22 70/45/22 30/65/22
f 36/32/23 20/31/23 59/46/23 70/45/23
f 42/68/24 71/41/24 29/44/24 3/69/24
f 14/66/25 60/48/25 71/41/25 42/68/25
f 60/48/26 24/47/26 58/42/26 71/41/26
f 55/34/18 72/37/18 57/40/18 23/35/18
f 15/70/19 31/71/19 72/37/19 55/34/19
f 31/71/20 6/72/20 47/38/20 72/37/20
f 26/73/21 73/33/21 56/36/21 10/74/21
f 1/75/22 43/76/22 73/33/22 26/73/22
f 43/76/23 15/70/23 55/34/23 73/33/23
f 38/77/24 74/29/24 36/32/24 5/67/24
f 10/74/25 56/36/25 74/29/25 38/77/25
f 56/36/26 23/35/26 54/30/26 74/29/26
f 51/22/9 75/25/9 53/28/9 22/23/9
f 11/78/10 27/79/10 75/25/10 51/22/10
f 27/79/11 2/80/11 44/26/11 75/25/11
f 47/38/12 76/21/12 52/24/12 19/39/12
f 6/72/13 39/81/13 76/21/13 47/38/13
f 39/81/14 11/78/14 51/22/14 76/21/14
f 35/10/15 77/17/15 37/20/15 9/11/15
f 19/39/16 52/24/16 77/17/16 35/10/16
f 52/24/17 22/23/17 50/18/17 77/17/17
f 50/18/27 78/13/27 49/16/27 21/19/27
f 22/23/28 53/28/28 78/13/28 50/18/28
f 53/28/29 16/27/29 32/14/29 78/13/29
f 54/30/30 79/9/30 48/12/30 20/31/30
f 23/35/31 57/40/31 79/9/31 54/30/31
f 57/40/32 19/39/32 35/10/32 79/9/32
f 58/42/30 80/5/30 41/8/30 13/43/30
f 24/47/31 61/52/31 80/5/31 58/42/31
f 61/52/32 18/51/32 34/6/32 80/5/32
f 62/54/27 81/1/27 45/4/27 17/55/27
f 25/59/28 65/64/28 81/1/28 62/54/28
f 65/64/29 12/63/29 28/2/29 81/1/29
