# Blender v2.78 (sub 0) OBJ File: 'mdl_logo.blend'
# www.blender.org
mtllib mdl_logo_000002.mtl
o Plane_Plane.001
v -2.000000 -2.000000 0.047000
v 2.000000 -2.000000 0.070782
v -2.000000 2.000000 0.038681
v 2.000000 2.000000 0.062462
v -2.000000 -0.000000 0.047000
v 0.000000 -2.000000 0.502350
v 2.000000 -0.000000 0.070782
v 0.000000 2.000000 0.494031
v 0.000000 -0.000000 0.502350
v -2.000000 -1.000000 0.047000
v 1.000000 -2.000000 0.322181
v 2.000000 1.000000 0.062462
v -1.000000 2.000000 0.249985
v -2.000000 1.000000 0.038681
v -1.000000 -2.000000 0.258305
v 2.000000 -1.000000 0.070782
v 1.000000 2.000000 0.313861
v 0.000000 1.000000 0.494031
v 0.000000 -1.000000 0.502350
v -1.000000 -0.000000 0.258305
v 1.000000 -0.000000 0.322181
v 1.000000 -1.000000 0.322181
v -1.000000 -1.000000 0.258305
v -1.000000 1.000000 0.249985
v 1.000000 1.000000 0.313861
v -2.000000 -1.500000 0.049805
v 1.500000 -2.000000 0.171175
v 2.000000 1.500000 0.062462
v -1.500000 2.000000 0.115299
v -2.000000 0.500000 0.038681
v -0.500000 -2.000000 0.413498
v 2.000000 -0.500000 0.062462
v 0.500000 2.000000 0.453801
v 0.000000 1.500000 0.494031
v 0.000000 -0.500000 0.494031
v -1.500000 -0.000000 0.123619
v 0.500000 -0.000000 0.462120
v -2.000000 -0.500000 0.038681
v 0.500000 -2.000000 0.462120
v 2.000000 0.500000 0.062462
v -0.500000 2.000000 0.405178
v -2.000000 1.500000 0.038681
v -1.500000 -2.000000 0.123619
v 2.000000 -1.500000 0.073586
v 1.500000 2.000000 0.162855
v 0.000000 0.500000 0.494031
v 0.000000 -1.500000 0.505155
v -0.500000 -0.000000 0.413498
v 1.500000 -0.000000 0.171175
v 1.000000 -0.500000 0.313861
v 1.000000 -1.500000 0.324985
v 0.500000 -1.000000 0.462120
v 1.500000 -1.000000 0.171175
v -1.000000 -0.500000 0.249985
v -1.000000 -1.500000 0.261110
v -1.500000 -1.000000 0.123619
v -0.500000 -1.000000 0.413498
v -1.000000 1.500000 0.249985
v -1.000000 0.500000 0.249985
v -1.500000 1.000000 0.115299
v -0.500000 1.000000 0.405178
v 1.000000 1.500000 0.313861
v 1.000000 0.500000 0.313861
v 0.500000 1.000000 0.453801
v 1.500000 1.000000 0.162855
v 1.500000 0.500000 0.162855
v 0.500000 0.500000 0.453801
v 0.500000 1.500000 0.453801
v -0.500000 0.500000 0.405178
v -1.500000 0.500000 0.115299
v -1.500000 1.500000 0.115299
v -0.500000 -1.500000 0.416303
v -1.500000 -1.500000 0.126423
v -1.500000 -0.500000 0.115299
v 1.500000 -1.500000 0.173979
v 0.500000 -1.500000 0.464925
v 0.500000 -0.500000 0.453801
v 1.500000 -0.500000 0.162855
v -0.500000 -0.500000 0.405178
v -0.500000 1.500000 0.405178
v 1.500000 1.500000 0.162855
vt 0.1253 0.1251
vt 0.0004 0.1250
vt 0.0004 0.0001
vt 0.1254 0.0001
vt 0.6251 0.1252
vt 0.5001 0.1252
vt 0.5002 0.0003
vt 0.6251 0.0003
vt 0.6249 0.6250
vt 0.5000 0.6249
vt 0.5000 0.5000
vt 0.6249 0.5000
vt 0.1252 0.6248
vt 0.0002 0.6248
vt 0.0003 0.4998
vt 0.1252 0.4999
vt 0.3750 0.6249
vt 0.2501 0.6248
vt 0.2501 0.4999
vt 0.3751 0.5000
vt 0.3749 0.8748
vt 0.2500 0.8747
vt 0.2500 0.7498
vt 0.3750 0.7498
vt 0.1251 0.8747
vt 0.0001 0.8746
vt 0.0002 0.7497
vt 0.1251 0.7497
vt 0.8748 0.6251
vt 0.7498 0.6250
vt 0.7499 0.5001
vt 0.8748 0.5001
vt 0.8747 0.8749
vt 0.7497 0.8749
vt 0.7498 0.7500
vt 0.8747 0.7500
vt 0.6248 0.8748
vt 0.4999 0.8748
vt 0.4999 0.7499
vt 0.6248 0.7499
vt 0.8749 0.1253
vt 0.7500 0.1253
vt 0.7500 0.0004
vt 0.8750 0.0004
vt 0.8748 0.3752
vt 0.7499 0.3752
vt 0.7500 0.2502
vt 0.8749 0.2503
vt 0.6250 0.3751
vt 0.5000 0.3751
vt 0.5001 0.2501
vt 0.6250 0.2502
vt 0.3752 0.1252
vt 0.2503 0.1251
vt 0.2503 0.0002
vt 0.3752 0.0002
vt 0.3751 0.3750
vt 0.2502 0.3750
vt 0.2502 0.2500
vt 0.3752 0.2501
vt 0.1252 0.3749
vt 0.0003 0.3749
vt 0.0004 0.2500
vt 0.1253 0.2500
vt 0.9998 0.3752
vt 0.9998 0.2503
vt 0.9997 0.5002
vt 0.9999 0.1254
vt 0.9999 0.0004
vt 0.7497 0.9998
vt 0.6248 0.9998
vt 0.4998 0.9997
vt 0.9996 0.8750
vt 0.9996 0.7500
vt 0.9996 0.9999
vt 0.8746 0.9999
vt 0.9997 0.6251
vt 0.2500 0.9996
vt 0.1250 0.9996
vt 0.0001 0.9996
vt 0.3749 0.9997
vn 0.1969 -0.0000 0.9804
vn -0.1750 -0.0000 0.9846
vn -0.1749 -0.0164 0.9844
vn 0.1968 -0.0163 0.9803
vn 0.2695 -0.0160 0.9629
vn 0.2695 0.0054 0.9630
vn 0.1969 0.0055 0.9804
vn -0.2601 -0.0161 0.9655
vn -0.2601 0.0054 0.9656
vn -0.1750 0.0055 0.9846
vn -0.2601 0.0000 0.9656
vn 0.2695 -0.0000 0.9630
vn 0.2891 -0.0000 0.9573
vn 0.2891 0.0159 0.9572
vn 0.1968 0.0163 0.9803
vn 0.0802 0.0000 0.9968
vn 0.0802 0.0166 0.9966
vn 0.2695 0.0160 0.9629
vn -0.2964 -0.0000 0.9551
vn -0.2964 0.0159 0.9549
vn -0.1749 0.0164 0.9844
vn -0.1515 -0.0000 0.9885
vn -0.1514 0.0164 0.9883
vn -0.2601 0.0161 0.9655
vn -0.2964 0.0054 0.9550
vn -0.2964 -0.0054 0.9550
vn -0.1750 -0.0055 0.9846
vn -0.1515 0.0055 0.9884
vn -0.1515 -0.0055 0.9884
vn -0.2601 -0.0054 0.9656
vn -0.1514 -0.0164 0.9883
vn 0.2891 0.0054 0.9573
vn 0.2891 -0.0054 0.9573
vn 0.1969 -0.0055 0.9804
vn 0.0802 0.0056 0.9968
vn 0.0802 -0.0056 0.9968
vn 0.2695 -0.0054 0.9630
vn 0.0802 -0.0166 0.9966
vn 0.2891 -0.0159 0.9572
vn -0.2964 -0.0159 0.9549
usemtl None
s off
f 81/1/1 28/2/1 4/3/1 45/4/1
f 80/5/2 34/6/2 8/7/2 41/8/2
f 79/9/3 35/10/3 9/11/3 48/12/3
f 78/13/4 32/14/4 7/15/4 49/16/4
f 77/17/5 50/18/5 21/19/5 37/20/5
f 76/21/6 51/22/6 22/23/6 52/24/6
f 75/25/7 44/26/7 16/27/7 53/28/7
f 74/29/8 54/30/8 20/31/8 36/32/8
f 73/33/9 55/34/9 23/35/9 56/36/9
f 72/37/10 47/38/10 19/39/10 57/40/10
f 71/41/11 58/42/11 13/43/11 29/44/11
f 70/45/11 59/46/11 24/47/11 60/48/11
f 69/49/2 46/50/2 18/51/2 61/52/2
f 68/53/12 62/54/12 17/55/12 33/56/12
f 67/57/12 63/58/12 25/59/12 64/60/12
f 66/61/1 40/62/1 12/63/1 65/64/1
f 63/58/13 66/61/13 65/64/13 25/59/13
f 21/19/14 49/16/14 66/61/14 63/58/14
f 49/16/15 7/15/15 40/62/15 66/61/15
f 46/50/16 67/57/16 64/60/16 18/51/16
f 9/11/17 37/20/17 67/57/17 46/50/17
f 37/20/18 21/19/18 63/58/18 67/57/18
f 34/6/16 68/53/16 33/56/16 8/7/16
f 18/51/16 64/60/16 68/53/16 34/6/16
f 64/60/12 25/59/12 62/54/12 68/53/12
f 59/46/19 69/49/19 61/52/19 24/47/19
f 20/31/20 48/12/20 69/49/20 59/46/20
f 48/12/21 9/11/21 46/50/21 69/49/21
f 30/65/22 70/45/22 60/48/22 14/66/22
f 5/67/23 36/32/23 70/45/23 30/65/23
f 36/32/24 20/31/24 59/46/24 70/45/24
f 42/68/22 71/41/22 29/44/22 3/69/22
f 14/66/22 60/48/22 71/41/22 42/68/22
f 60/48/11 24/47/11 58/42/11 71/41/11
f 55/34/25 72/37/25 57/40/25 23/35/25
f 15/70/26 31/71/26 72/37/26 55/34/26
f 31/71/27 6/72/27 47/38/27 72/37/27
f 26/73/28 73/33/28 56/36/28 10/74/28
f 1/75/29 43/76/29 73/33/29 26/73/29
f 43/76/30 15/70/30 55/34/30 73/33/30
f 38/77/31 74/29/31 36/32/31 5/67/31
f 10/74/23 56/36/23 74/29/23 38/77/23
f 56/36/24 23/35/24 54/30/24 74/29/24
f 51/22/32 75/25/32 53/28/32 22/23/32
f 11/78/33 27/79/33 75/25/33 51/22/33
f 27/79/34 2/80/34 44/26/34 75/25/34
f 47/38/35 76/21/35 52/24/35 19/39/35
f 6/72/36 39/81/36 76/21/36 47/38/36
f 39/81/37 11/78/37 51/22/37 76/21/37
f 35/10/38 77/17/38 37/20/38 9/11/38
f 19/39/17 52/24/17 77/17/17 35/10/17
f 52/24/18 22/23/18 50/18/18 77/17/18
f 50/18/39 78/13/39 49/16/39 21/19/39
f 22/23/14 53/28/14 78/13/14 50/18/14
f 53/28/15 16/27/15 32/14/15 78/13/15
f 54/30/40 79/9/40 48/12/40 20/31/40
f 23/35/20 57/40/20 79/9/20 54/30/20
f 57/40/21 19/39/21 35/10/21 79/9/21
f 58/42/19 80/5/19 41/8/19 13/43/19
f 24/47/19 61/52/19 80/5/19 58/42/19
f 61/52/2 18/51/2 34/6/2 80/5/2
f 62/54/13 81/1/13 45/4/13 17/55/13
f 25/59/13 65/64/13 81/1/13 62/54/13
f 65/64/1 12/63/1 28/2/1 81/1/1
