# Blender v2.78 (sub 0) OBJ File: 'mdl_logo.blend'
# www.blender.org
mtllib mdl_logo_000011.mtl
o Plane_Plane.001
v -2.000000 -2.000000 0.014568
v 2.000000 -2.000000 0.154903
v -2.000000 2.000000 0.009732
v 2.000000 2.000000 0.150067
v -2.000000 -0.000000 0.014568
v 0.000000 -2.000000 0.423438
v 2.000000 -0.000000 0.154903
v 0.000000 2.000000 0.418602
v 0.000000 -0.000000 0.423438
v -2.000000 -1.000000 0.020153
v 1.000000 -2.000000 0.447842
v 2.000000 1.000000 0.150067
v -1.000000 2.000000 0.126273
v -2.000000 1.000000 0.009732
v -1.000000 -2.000000 0.131109
v 2.000000 -1.000000 0.160489
v 1.000000 2.000000 0.443006
v 0.000000 1.000000 0.418602
v 0.000000 -1.000000 0.429023
v -1.000000 -0.000000 0.131109
v 1.000000 -0.000000 0.447842
v 1.000000 -1.000000 0.453428
v -1.000000 -1.000000 0.136695
v -1.000000 1.000000 0.126273
v 1.000000 1.000000 0.443006
v -2.000000 -1.500000 0.020153
v 1.500000 -2.000000 0.302623
v 2.000000 1.500000 0.150067
v -1.500000 2.000000 0.043861
v -2.000000 0.500000 0.020153
v -0.500000 -2.000000 0.270601
v 2.000000 -0.500000 0.154903
v 0.500000 2.000000 0.496133
v 0.000000 1.500000 0.418602
v 0.000000 -0.500000 0.423438
v -1.500000 -0.000000 0.048697
v 0.500000 -0.000000 0.500969
v -2.000000 -0.500000 0.014568
v 0.500000 -2.000000 0.500969
v 2.000000 0.500000 0.160489
v -0.500000 2.000000 0.265765
v -2.000000 1.500000 0.009732
v -1.500000 -2.000000 0.048697
v 2.000000 -1.500000 0.160489
v 1.500000 2.000000 0.297788
v 0.000000 0.500000 0.429023
v 0.000000 -1.500000 0.429023
v -0.500000 -0.000000 0.270601
v 1.500000 -0.000000 0.302624
v 1.000000 -0.500000 0.447842
v 1.000000 -1.500000 0.453428
v 0.500000 -1.000000 0.506554
v 1.500000 -1.000000 0.308209
v -1.000000 -0.500000 0.131109
v -1.000000 -1.500000 0.136695
v -1.500000 -1.000000 0.054283
v -0.500000 -1.000000 0.276187
v -1.000000 1.500000 0.126273
v -1.000000 0.500000 0.136695
v -1.500000 1.000000 0.043861
v -0.500000 1.000000 0.265765
v 1.000000 1.500000 0.443006
v 1.000000 0.500000 0.453428
v 0.500000 1.000000 0.496133
v 1.500000 1.000000 0.297787
v 1.500000 0.500000 0.308209
v 0.500000 0.500000 0.506554
v 0.500000 1.500000 0.496133
v -0.500000 0.500000 0.276187
v -1.500000 0.500000 0.054283
v -1.500000 1.500000 0.043861
v -0.500000 -1.500000 0.276187
v -1.500000 -1.500000 0.054283
v -1.500000 -0.500000 0.048697
v 1.500000 -1.500000 0.308209
v 0.500000 -1.500000 0.506554
v 0.500000 -0.500000 0.500969
v 1.500000 -0.500000 0.302624
v -0.500000 -0.500000 0.270601
v -0.500000 1.500000 0.265765
v 1.500000 1.500000 0.297788
vt 0.1253 0.1251
vt 0.0004 0.1250
vt 0.0004 0.0001
vt 0.1254 0.0001
vt 0.6251 0.1252
vt 0.5001 0.1252
vt 0.5002 0.0003
vt 0.6251 0.0003
vt 0.6249 0.6250
vt 0.5000 0.6249
vt 0.5000 0.5000
vt 0.6249 0.5000
vt 0.1252 0.6248
vt 0.0002 0.6248
vt 0.0003 0.4998
vt 0.1252 0.4999
vt 0.3750 0.6249
vt 0.2501 0.6248
vt 0.2501 0.4999
vt 0.3751 0.5000
vt 0.3749 0.8748
vt 0.2500 0.8747
vt 0.2500 0.7498
vt 0.3750 0.7498
vt 0.1251 0.8747
vt 0.0001 0.8746
vt 0.0002 0.7497
vt 0.1251 0.7497
vt 0.8748 0.6251
vt 0.7498 0.6250
vt 0.7499 0.5001
vt 0.8748 0.5001
vt 0.8747 0.8749
vt 0.7497 0.8749
vt 0.7498 0.7500
vt 0.8747 0.7500
vt 0.6248 0.8748
vt 0.4999 0.8748
vt 0.4999 0.7499
vt 0.6248 0.7499
vt 0.8749 0.1253
vt 0.7500 0.1253
vt 0.7500 0.0004
vt 0.8750 0.0004
vt 0.8748 0.3752
vt 0.7499 0.3752
vt 0.7500 0.2502
vt 0.8749 0.2503
vt 0.6250 0.3751
vt 0.5000 0.3751
vt 0.5001 0.2501
vt 0.6250 0.2502
vt 0.3752 0.1252
vt 0.2503 0.1251
vt 0.2503 0.0002
vt 0.3752 0.0002
vt 0.3751 0.3750
vt 0.2502 0.3750
vt 0.2502 0.2500
vt 0.3752 0.2501
vt 0.1252 0.3749
vt 0.0003 0.3749
vt 0.0004 0.2500
vt 0.1253 0.2500
vt 0.9998 0.3752
vt 0.9998 0.2503
vt 0.9997 0.5002
vt 0.9999 0.1254
vt 0.9999 0.0004
vt 0.7497 0.9998
vt 0.6248 0.9998
vt 0.4998 0.9997
vt 0.9996 0.8750
vt 0.9996 0.7500
vt 0.9996 0.9999
vt 0.8746 0.9999
vt 0.9997 0.6251
vt 0.2500 0.9996
vt 0.1250 0.9996
vt 0.0001 0.9996
vt 0.3749 0.9997
vn 0.2833 -0.0000 0.9590
vn -0.2923 -0.0000 0.9563
vn 0.1057 -0.0000 0.9944
vn -0.1626 0.0000 0.9867
vn -0.1626 0.0206 0.9865
vn -0.2923 0.0199 0.9561
vn 0.1056 0.0207 0.9942
vn 0.2833 0.0200 0.9588
vn 0.2789 0.0200 0.9601
vn 0.2789 -0.0107 0.9603
vn 0.2833 -0.0107 0.9590
vn -0.1532 0.0206 0.9880
vn -0.1532 -0.0110 0.9881
vn 0.1057 -0.0111 0.9943
vn -0.1532 -0.0000 0.9882
vn -0.2687 0.0201 0.9630
vn -0.2687 -0.0108 0.9632
vn -0.2923 -0.0107 0.9563
vn -0.0681 0.0208 0.9975
vn -0.0681 -0.0111 0.9976
vn -0.1626 -0.0110 0.9866
vn -0.0681 -0.0000 0.9977
vn -0.2687 -0.0000 0.9632
vn -0.0681 0.0111 0.9976
vn -0.1626 0.0110 0.9866
vn 0.2789 -0.0000 0.9603
vn -0.1532 0.0110 0.9881
vn 0.1057 0.0111 0.9943
vn 0.2789 0.0107 0.9603
vn 0.2833 0.0107 0.9590
vn -0.2687 0.0108 0.9632
vn -0.2923 0.0107 0.9563
usemtl None
s off
f 81/1/1 28/2/1 4/3/1 45/4/1
f 80/5/2 34/6/2 8/7/2 41/8/2
f 79/9/2 35/10/2 9/11/2 48/12/2
f 78/13/1 32/14/1 7/15/1 49/16/1
f 77/17/3 50/18/3 21/19/3 37/20/3
f 76/21/3 51/22/3 22/23/3 52/24/3
f 75/25/1 44/26/1 16/27/1 53/28/1
f 74/29/4 54/30/4 20/31/4 36/32/4
f 73/33/4 55/34/4 23/35/4 56/36/4
f 72/37/2 47/38/2 19/39/2 57/40/2
f 71/41/4 58/42/4 13/43/4 29/44/4
f 70/45/5 59/46/5 24/47/5 60/48/5
f 69/49/6 46/50/6 18/51/6 61/52/6
f 68/53/3 62/54/3 17/55/3 33/56/3
f 67/57/7 63/58/7 25/59/7 64/60/7
f 66/61/8 40/62/8 12/63/8 65/64/8
f 63/58/9 66/61/9 65/64/9 25/59/9
f 21/19/10 49/16/10 66/61/10 63/58/10
f 49/16/11 7/15/11 40/62/11 66/61/11
f 46/50/12 67/57/12 64/60/12 18/51/12
f 9/11/13 37/20/13 67/57/13 46/50/13
f 37/20/14 21/19/14 63/58/14 67/57/14
f 34/6/15 68/53/15 33/56/15 8/7/15
f 18/51/15 64/60/15 68/53/15 34/6/15
f 64/60/3 25/59/3 62/54/3 68/53/3
f 59/46/16 69/49/16 61/52/16 24/47/16
f 20/31/17 48/12/17 69/49/17 59/46/17
f 48/12/18 9/11/18 46/50/18 69/49/18
f 30/65/19 70/45/19 60/48/19 14/66/19
f 5/67/20 36/32/20 70/45/20 30/65/20
f 36/32/21 20/31/21 59/46/21 70/45/21
f 42/68/22 71/41/22 29/44/22 3/69/22
f 14/66/22 60/48/22 71/41/22 42/68/22
f 60/48/4 24/47/4 58/42/4 71/41/4
f 55/34/23 72/37/23 57/40/23 23/35/23
f 15/70/17 31/71/17 72/37/17 55/34/17
f 31/71/18 6/72/18 47/38/18 72/37/18
f 26/73/22 73/33/22 56/36/22 10/74/22
f 1/75/20 43/76/20 73/33/20 26/73/20
f 43/76/21 15/70/21 55/34/21 73/33/21
f 38/77/22 74/29/22 36/32/22 5/67/22
f 10/74/24 56/36/24 74/29/24 38/77/24
f 56/36/25 23/35/25 54/30/25 74/29/25
f 51/22/26 75/25/26 53/28/26 22/23/26
f 11/78/10 27/79/10 75/25/10 51/22/10
f 27/79/11 2/80/11 44/26/11 75/25/11
f 47/38/15 76/21/15 52/24/15 19/39/15
f 6/72/13 39/81/13 76/21/13 47/38/13
f 39/81/14 11/78/14 51/22/14 76/21/14
f 35/10/15 77/17/15 37/20/15 9/11/15
f 19/39/27 52/24/27 77/17/27 35/10/27
f 52/24/28 22/23/28 50/18/28 77/17/28
f 50/18/26 78/13/26 49/16/26 21/19/26
f 22/23/29 53/28/29 78/13/29 50/18/29
f 53/28/30 16/27/30 32/14/30 78/13/30
f 54/30/23 79/9/23 48/12/23 20/31/23
f 23/35/31 57/40/31 79/9/31 54/30/31
f 57/40/32 19/39/32 35/10/32 79/9/32
f 58/42/23 80/5/23 41/8/23 13/43/23
f 24/47/23 61/52/23 80/5/23 58/42/23
f 61/52/2 18/51/2 34/6/2 80/5/2
f 62/54/26 81/1/26 45/4/26 17/55/26
f 25/59/26 65/64/26 81/1/26 62/54/26
f 65/64/1 12/63/1 28/2/1 81/1/1
