# Blender v2.78 (sub 0) OBJ File: 'mdl_logo.blend'
# www.blender.org
mtllib mdl_logo_000020.mtl
o Plane_Plane.001
v -2.000000 -2.000000 -0.000000
v 2.000000 -2.000000 0.281726
v -2.000000 2.000000 0.000000
v 2.000000 2.000000 0.281727
v -2.000000 0.000000 0.000000
v 0.000000 -2.000000 0.281726
v 2.000000 -0.000000 0.281727
v 0.000000 2.000000 0.281727
v 0.000000 -0.000000 0.281727
v -2.000000 -1.000000 0.011124
v 1.000000 -2.000000 0.496835
v 2.000000 1.000000 0.292851
v -1.000000 2.000000 0.049535
v -2.000000 1.000000 0.011124
v -1.000000 -2.000000 0.049535
v 2.000000 -1.000000 0.292851
v 1.000000 2.000000 0.496835
v 0.000000 1.000000 0.292851
v 0.000000 -1.000000 0.292851
v -1.000000 -0.000000 0.049535
v 1.000000 -0.000000 0.496835
v 1.000000 -1.000000 0.507959
v -1.000000 -1.000000 0.060659
v -1.000000 1.000000 0.060659
v 1.000000 1.000000 0.507960
v -2.000000 -1.500000 0.008320
v 1.500000 -2.000000 0.431243
v 2.000000 1.500000 0.281727
v -1.500000 2.000000 0.011700
v -2.000000 0.500000 0.008320
v -0.500000 -2.000000 0.137867
v 2.000000 -0.500000 0.290046
v 0.500000 2.000000 0.431243
v 0.000000 1.500000 0.281727
v 0.000000 -0.500000 0.290046
v -1.500000 -0.000000 0.011700
v 0.500000 -0.000000 0.431243
v -2.000000 -0.500000 0.008320
v 0.500000 -2.000000 0.431243
v 2.000000 0.500000 0.290046
v -0.500000 2.000000 0.137867
v -2.000000 1.500000 0.000000
v -1.500000 -2.000000 0.011700
v 2.000000 -1.500000 0.290046
v 1.500000 2.000000 0.431243
v 0.000000 0.500000 0.290046
v 0.000000 -1.500000 0.290046
v -0.500000 -0.000000 0.137867
v 1.500000 -0.000000 0.431243
v 1.000000 -0.500000 0.505155
v 1.000000 -1.500000 0.505155
v 0.500000 -1.000000 0.442367
v 1.500000 -1.000000 0.442367
v -1.000000 -0.500000 0.057854
v -1.000000 -1.500000 0.057854
v -1.500000 -1.000000 0.022824
v -0.500000 -1.000000 0.148991
v -1.000000 1.500000 0.049535
v -1.000000 0.500000 0.057855
v -1.500000 1.000000 0.022824
v -0.500000 1.000000 0.148991
v 1.000000 1.500000 0.496835
v 1.000000 0.500000 0.505155
v 0.500000 1.000000 0.442367
v 1.500000 1.000000 0.442367
v 1.500000 0.500000 0.439562
v 0.500000 0.500000 0.439562
v 0.500000 1.500000 0.431243
v -0.500000 0.500000 0.146186
v -1.500000 0.500000 0.020020
v -1.500000 1.500000 0.011700
v -0.500000 -1.500000 0.146186
v -1.500000 -1.500000 0.020019
v -1.500000 -0.500000 0.020019
v 1.500000 -1.500000 0.439562
v 0.500000 -1.500000 0.439562
v 0.500000 -0.500000 0.439562
v 1.500000 -0.500000 0.439562
v -0.500000 -0.500000 0.146186
v -0.500000 1.500000 0.137867
v 1.500000 1.500000 0.431243
vt 0.1253 0.1251
vt 0.0004 0.1250
vt 0.0004 0.0001
vt 0.1254 0.0001
vt 0.6251 0.1252
vt 0.5001 0.1252
vt 0.5002 0.0003
vt 0.6251 0.0003
vt 0.6249 0.6250
vt 0.5000 0.6249
vt 0.5000 0.5000
vt 0.6249 0.5000
vt 0.1252 0.6248
vt 0.0002 0.6248
vt 0.0003 0.4998
vt 0.1252 0.4999
vt 0.3750 0.6249
vt 0.2501 0.6248
vt 0.2501 0.4999
vt 0.3751 0.5000
vt 0.3749 0.8748
vt 0.2500 0.8747
vt 0.2500 0.7498
vt 0.3750 0.7498
vt 0.1251 0.8747
vt 0.0001 0.8746
vt 0.0002 0.7497
vt 0.1251 0.7497
vt 0.8748 0.6251
vt 0.7498 0.6250
vt 0.7499 0.5001
vt 0.8748 0.5001
vt 0.8747 0.8749
vt 0.7497 0.8749
vt 0.7498 0.7500
vt 0.8747 0.7500
vt 0.6248 0.8748
vt 0.4999 0.8748
vt 0.4999 0.7499
vt 0.6248 0.7499
vt 0.8749 0.1253
vt 0.7500 0.1253
vt 0.7500 0.0004
vt 0.8750 0.0004
vt 0.8748 0.3752
vt 0.7499 0.3752
vt 0.7500 0.2502
vt 0.8749 0.2503
vt 0.6250 0.3751
vt 0.5000 0.3751
vt 0.5001 0.2501
vt 0.6250 0.2502
vt 0.3752 0.1252
vt 0.2503 0.1251
vt 0.2503 0.0002
vt 0.3752 0.0002
vt 0.3751 0.3750
vt 0.2502 0.3750
vt 0.2502 0.2500
vt 0.3752 0.2501
vt 0.1252 0.3749
vt 0.0003 0.3749
vt 0.0004 0.2500
vt 0.1253 0.2500
vt 0.9998 0.3752
vt 0.9998 0.2503
vt 0.9997 0.5002
vt 0.9999 0.1254
vt 0.9999 0.0004
vt 0.7497 0.9998
vt 0.6248 0.9998
vt 0.4998 0.9997
vt 0.9996 0.8750
vt 0.9996 0.7500
vt 0.9996 0.9999
vt 0.8746 0.9999
vt 0.9997 0.6251
vt 0.2500 0.9996
vt 0.1250 0.9996
vt 0.0001 0.9996
vt 0.3749 0.9997
vn 0.2865 0.0000 0.9581
vn -0.2765 -0.0000 0.9610
vn -0.2765 0.0160 0.9609
vn 0.2865 0.0159 0.9580
vn -0.1301 0.0165 0.9914
vn -0.1301 -0.0056 0.9915
vn 0.2865 -0.0054 0.9581
vn -0.0754 0.0166 0.9970
vn -0.0755 -0.0056 0.9971
vn -0.2765 -0.0054 0.9610
vn -0.0755 -0.0000 0.9971
vn -0.1301 -0.0000 0.9915
vn 0.1301 -0.0056 0.9915
vn 0.1301 -0.0165 0.9914
vn 0.2865 -0.0159 0.9580
vn -0.2865 -0.0054 0.9581
vn -0.2865 -0.0159 0.9580
vn -0.1301 -0.0165 0.9914
vn -0.2865 -0.0000 0.9581
vn -0.2864 0.0213 0.9579
vn -0.1300 0.0221 0.9913
vn -0.1740 -0.0055 0.9847
vn -0.1739 -0.0164 0.9846
vn -0.2765 -0.0160 0.9609
vn -0.0234 -0.0056 0.9997
vn -0.0234 -0.0166 0.9996
vn -0.0754 -0.0166 0.9970
vn -0.0234 -0.0000 0.9997
vn -0.0234 0.0222 0.9995
vn -0.0754 0.0222 0.9969
vn -0.0234 0.0166 0.9996
vn -0.0234 0.0056 0.9997
vn -0.0755 0.0056 0.9971
vn -0.2865 0.0159 0.9580
vn -0.2865 0.0054 0.9581
vn -0.1301 0.0056 0.9915
vn 0.1301 0.0165 0.9914
vn 0.1301 0.0056 0.9915
vn 0.2865 0.0054 0.9581
vn -0.1739 0.0164 0.9846
vn -0.1740 0.0055 0.9847
vn -0.2765 0.0054 0.9610
vn -0.1740 -0.0000 0.9848
vn -0.1739 0.0219 0.9845
vn -0.2764 0.0214 0.9608
vn 0.1301 -0.0000 0.9915
vn 0.1300 0.0221 0.9913
vn 0.2864 0.0213 0.9579
usemtl None
s off
f 81/1/1 28/2/1 4/3/1 45/4/1
f 80/5/2 34/6/2 8/7/2 41/8/2
f 79/9/3 35/10/3 9/11/3 48/12/3
f 78/13/4 32/14/4 7/15/4 49/16/4
f 77/17/5 50/18/5 21/19/5 37/20/5
f 76/21/6 51/22/6 22/23/6 52/24/6
f 75/25/7 44/26/7 16/27/7 53/28/7
f 74/29/8 54/30/8 20/31/8 36/32/8
f 73/33/9 55/34/9 23/35/9 56/36/9
f 72/37/10 47/38/10 19/39/10 57/40/10
f 71/41/11 58/42/11 13/43/11 29/44/11
f 70/45/9 59/46/9 24/47/9 60/48/9
f 69/49/10 46/50/10 18/51/10 61/52/10
f 68/53/12 62/54/12 17/55/12 33/56/12
f 67/57/6 63/58/6 25/59/6 64/60/6
f 66/61/7 40/62/7 12/63/7 65/64/7
f 63/58/13 66/61/13 65/64/13 25/59/13
f 21/19/14 49/16/14 66/61/14 63/58/14
f 49/16/15 7/15/15 40/62/15 66/61/15
f 46/50/16 67/57/16 64/60/16 18/51/16
f 9/11/17 37/20/17 67/57/17 46/50/17
f 37/20/18 21/19/18 63/58/18 67/57/18
f 34/6/19 68/53/19 33/56/19 8/7/19
f 18/51/20 64/60/20 68/53/20 34/6/20
f 64/60/21 25/59/21 62/54/21 68/53/21
f 59/46/22 69/49/22 61/52/22 24/47/22
f 20/31/23 48/12/23 69/49/23 59/46/23
f 48/12/24 9/11/24 46/50/24 69/49/24
f 30/65/25 70/45/25 60/48/25 14/66/25
f 5/67/26 36/32/26 70/45/26 30/65/26
f 36/32/27 20/31/27 59/46/27 70/45/27
f 42/68/28 71/41/28 29/44/28 3/69/28
f 14/66/29 60/48/29 71/41/29 42/68/29
f 60/48/30 24/47/30 58/42/30 71/41/30
f 55/34/22 72/37/22 57/40/22 23/35/22
f 15/70/23 31/71/23 72/37/23 55/34/23
f 31/71/24 6/72/24 47/38/24 72/37/24
f 26/73/25 73/33/25 56/36/25 10/74/25
f 1/75/26 43/76/26 73/33/26 26/73/26
f 43/76/27 15/70/27 55/34/27 73/33/27
f 38/77/31 74/29/31 36/32/31 5/67/31
f 10/74/32 56/36/32 74/29/32 38/77/32
f 56/36/33 23/35/33 54/30/33 74/29/33
f 51/22/13 75/25/13 53/28/13 22/23/13
f 11/78/14 27/79/14 75/25/14 51/22/14
f 27/79/15 2/80/15 44/26/15 75/25/15
f 47/38/16 76/21/16 52/24/16 19/39/16
f 6/72/17 39/81/17 76/21/17 47/38/17
f 39/81/18 11/78/18 51/22/18 76/21/18
f 35/10/34 77/17/34 37/20/34 9/11/34
f 19/39/35 52/24/35 77/17/35 35/10/35
f 52/24/36 22/23/36 50/18/36 77/17/36
f 50/18/37 78/13/37 49/16/37 21/19/37
f 22/23/38 53/28/38 78/13/38 50/18/38
f 53/28/39 16/27/39 32/14/39 78/13/39
f 54/30/40 79/9/40 48/12/40 20/31/40
f 23/35/41 57/40/41 79/9/41 54/30/41
f 57/40/42 19/39/42 35/10/42 79/9/42
f 58/42/43 80/5/43 41/8/43 13/43/43
f 24/47/44 61/52/44 80/5/44 58/42/44
f 61/52/45 18/51/45 34/6/45 80/5/45
f 62/54/46 81/1/46 45/4/46 17/55/46
f 25/59/47 65/64/47 81/1/47 62/54/47
f 65/64/48 12/63/48 28/2/48 81/1/48
