# Blender v2.78 (sub 0) OBJ File: 'mdl_logo.blend'
# www.blender.org
mtllib mdl_logo_000015.mtl
o Plane_Plane.001
v -2.000000 -2.000000 0.014361
v 2.000000 -2.000000 0.214875
v -2.000000 2.000000 0.003940
v 2.000000 2.000000 0.204454
v -2.000000 -0.000000 0.014361
v 0.000000 -2.000000 0.371638
v 2.000000 -0.000000 0.214875
v 0.000000 2.000000 0.361217
v 0.000000 -0.000000 0.371639
v -2.000000 -1.000000 0.008776
v 1.000000 -2.000000 0.489984
v 2.000000 1.000000 0.204454
v -1.000000 2.000000 0.086131
v -2.000000 1.000000 0.003939
v -1.000000 -2.000000 0.096552
v 2.000000 -1.000000 0.209290
v 1.000000 2.000000 0.479563
v 0.000000 1.000000 0.361217
v 0.000000 -1.000000 0.366053
v -1.000000 -0.000000 0.096552
v 1.000000 -0.000000 0.489984
v 1.000000 -1.000000 0.484399
v -1.000000 -1.000000 0.090967
v -1.000000 1.000000 0.086131
v 1.000000 1.000000 0.479562
v -2.000000 -1.500000 0.008776
v 1.500000 -2.000000 0.371638
v 2.000000 1.500000 0.204454
v -1.500000 2.000000 0.025825
v -2.000000 0.500000 0.008776
v -0.500000 -2.000000 0.214875
v 2.000000 -0.500000 0.214875
v 0.500000 2.000000 0.479563
v 0.000000 1.500000 0.361217
v 0.000000 -0.500000 0.371639
v -1.500000 -0.000000 0.036247
v 0.500000 -0.000000 0.489984
v -2.000000 -0.500000 0.014361
v 0.500000 -2.000000 0.489984
v 2.000000 0.500000 0.209290
v -0.500000 2.000000 0.204454
v -2.000000 1.500000 0.003940
v -1.500000 -2.000000 0.036247
v 2.000000 -1.500000 0.209290
v 1.500000 2.000000 0.361217
v 0.000000 0.500000 0.366053
v 0.000000 -1.500000 0.366053
v -0.500000 -0.000000 0.214875
v 1.500000 -0.000000 0.371639
v 1.000000 -0.500000 0.489984
v 1.000000 -1.500000 0.484398
v 0.500000 -1.000000 0.484399
v 1.500000 -1.000000 0.366053
v -1.000000 -0.500000 0.096552
v -1.000000 -1.500000 0.090967
v -1.500000 -1.000000 0.030661
v -0.500000 -1.000000 0.209290
v -1.000000 1.500000 0.086131
v -1.000000 0.500000 0.090967
v -1.500000 1.000000 0.025825
v -0.500000 1.000000 0.204454
v 1.000000 1.500000 0.479562
v 1.000000 0.500000 0.484399
v 0.500000 1.000000 0.479562
v 1.500000 1.000000 0.361217
v 1.500000 0.500000 0.366053
v 0.500000 0.500000 0.484399
v 0.500000 1.500000 0.479562
v -0.500000 0.500000 0.209290
v -1.500000 0.500000 0.030661
v -1.500000 1.500000 0.025825
v -0.500000 -1.500000 0.209290
v -1.500000 -1.500000 0.030661
v -1.500000 -0.500000 0.036247
v 1.500000 -1.500000 0.366053
v 0.500000 -1.500000 0.484398
v 0.500000 -0.500000 0.489984
v 1.500000 -0.500000 0.371639
v -0.500000 -0.500000 0.214875
v -0.500000 1.500000 0.204454
v 1.500000 1.500000 0.361217
vt 0.1253 0.1251
vt 0.0004 0.1250
vt 0.0004 0.0001
vt 0.1254 0.0001
vt 0.6251 0.1252
vt 0.5001 0.1252
vt 0.5002 0.0003
vt 0.6251 0.0003
vt 0.6249 0.6250
vt 0.5000 0.6249
vt 0.5000 0.5000
vt 0.6249 0.5000
vt 0.1252 0.6248
vt 0.0002 0.6248
vt 0.0003 0.4998
vt 0.1252 0.4999
vt 0.3750 0.6249
vt 0.2501 0.6248
vt 0.2501 0.4999
vt 0.3751 0.5000
vt 0.3749 0.8748
vt 0.2500 0.8747
vt 0.2500 0.7498
vt 0.3750 0.7498
vt 0.1251 0.8747
vt 0.0001 0.8746
vt 0.0002 0.7497
vt 0.1251 0.7497
vt 0.8748 0.6251
vt 0.7498 0.6250
vt 0.7499 0.5001
vt 0.8748 0.5001
vt 0.8747 0.8749
vt 0.7497 0.8749
vt 0.7498 0.7500
vt 0.8747 0.7500
vt 0.6248 0.8748
vt 0.4999 0.8748
vt 0.4999 0.7499
vt 0.6248 0.7499
vt 0.8749 0.1253
vt 0.7500 0.1253
vt 0.7500 0.0004
vt 0.8750 0.0004
vt 0.8748 0.3752
vt 0.7499 0.3752
vt 0.7500 0.2502
vt 0.8749 0.2503
vt 0.6250 0.3751
vt 0.5000 0.3751
vt 0.5001 0.2501
vt 0.6250 0.2502
vt 0.3752 0.1252
vt 0.2503 0.1251
vt 0.2503 0.0002
vt 0.3752 0.0002
vt 0.3751 0.3750
vt 0.2502 0.3750
vt 0.2502 0.2500
vt 0.3752 0.2501
vt 0.1252 0.3749
vt 0.0003 0.3749
vt 0.0004 0.2500
vt 0.1253 0.2500
vt 0.9998 0.3752
vt 0.9998 0.2503
vt 0.9997 0.5002
vt 0.9999 0.1254
vt 0.9999 0.0004
vt 0.7497 0.9998
vt 0.6248 0.9998
vt 0.4998 0.9997
vt 0.9996 0.8750
vt 0.9996 0.7500
vt 0.9996 0.9999
vt 0.8746 0.9999
vt 0.9997 0.6251
vt 0.2500 0.9996
vt 0.1250 0.9996
vt 0.0001 0.9996
vt 0.3749 0.9997
vn 0.2992 0.0000 0.9542
vn -0.2992 -0.0000 0.9542
vn 0.0000 -0.0000 1.0000
vn -0.1197 -0.0000 0.9928
vn -0.1197 0.0096 0.9928
vn -0.2992 0.0092 0.9542
vn 0.0000 0.0097 1.0000
vn 0.2992 0.0092 0.9542
vn 0.2303 0.0094 0.9731
vn 0.2303 0.0109 0.9731
vn 0.2992 0.0107 0.9541
vn -0.2303 0.0094 0.9731
vn -0.2303 0.0109 0.9731
vn 0.0000 0.0112 0.9999
vn -0.2303 -0.0000 0.9731
vn -0.2992 0.0107 0.9541
vn -0.0437 0.0097 0.9990
vn -0.0437 0.0112 0.9990
vn -0.1197 0.0111 0.9927
vn -0.0437 -0.0000 0.9990
vn -0.0437 -0.0112 0.9990
vn -0.1197 -0.0111 0.9927
vn 0.2303 -0.0000 0.9731
vn -0.2303 -0.0109 0.9731
vn 0.0000 -0.0112 0.9999
vn 0.2303 -0.0109 0.9731
vn 0.2992 -0.0107 0.9541
vn -0.2992 -0.0107 0.9541
usemtl None
s off
f 81/1/1 28/2/1 4/3/1 45/4/1
f 80/5/2 34/6/2 8/7/2 41/8/2
f 79/9/2 35/10/2 9/11/2 48/12/2
f 78/13/1 32/14/1 7/15/1 49/16/1
f 77/17/3 50/18/3 21/19/3 37/20/3
f 76/21/3 51/22/3 22/23/3 52/24/3
f 75/25/1 44/26/1 16/27/1 53/28/1
f 74/29/4 54/30/4 20/31/4 36/32/4
f 73/33/4 55/34/4 23/35/4 56/36/4
f 72/37/2 47/38/2 19/39/2 57/40/2
f 71/41/4 58/42/4 13/43/4 29/44/4
f 70/45/5 59/46/5 24/47/5 60/48/5
f 69/49/6 46/50/6 18/51/6 61/52/6
f 68/53/3 62/54/3 17/55/3 33/56/3
f 67/57/7 63/58/7 25/59/7 64/60/7
f 66/61/8 40/62/8 12/63/8 65/64/8
f 63/58/9 66/61/9 65/64/9 25/59/9
f 21/19/10 49/16/10 66/61/10 63/58/10
f 49/16/11 7/15/11 40/62/11 66/61/11
f 46/50/12 67/57/12 64/60/12 18/51/12
f 9/11/13 37/20/13 67/57/13 46/50/13
f 37/20/14 21/19/14 63/58/14 67/57/14
f 34/6/15 68/53/15 33/56/15 8/7/15
f 18/51/15 64/60/15 68/53/15 34/6/15
f 64/60/3 25/59/3 62/54/3 68/53/3
f 59/46/12 69/49/12 61/52/12 24/47/12
f 20/31/13 48/12/13 69/49/13 59/46/13
f 48/12/16 9/11/16 46/50/16 69/49/16
f 30/65/17 70/45/17 60/48/17 14/66/17
f 5/67/18 36/32/18 70/45/18 30/65/18
f 36/32/19 20/31/19 59/46/19 70/45/19
f 42/68/20 71/41/20 29/44/20 3/69/20
f 14/66/20 60/48/20 71/41/20 42/68/20
f 60/48/4 24/47/4 58/42/4 71/41/4
f 55/34/15 72/37/15 57/40/15 23/35/15
f 15/70/13 31/71/13 72/37/13 55/34/13
f 31/71/16 6/72/16 47/38/16 72/37/16
f 26/73/20 73/33/20 56/36/20 10/74/20
f 1/75/18 43/76/18 73/33/18 26/73/18
f 43/76/19 15/70/19 55/34/19 73/33/19
f 38/77/20 74/29/20 36/32/20 5/67/20
f 10/74/21 56/36/21 74/29/21 38/77/21
f 56/36/22 23/35/22 54/30/22 74/29/22
f 51/22/23 75/25/23 53/28/23 22/23/23
f 11/78/10 27/79/10 75/25/10 51/22/10
f 27/79/11 2/80/11 44/26/11 75/25/11
f 47/38/15 76/21/15 52/24/15 19/39/15
f 6/72/13 39/81/13 76/21/13 47/38/13
f 39/81/14 11/78/14 51/22/14 76/21/14
f 35/10/15 77/17/15 37/20/15 9/11/15
f 19/39/24 52/24/24 77/17/24 35/10/24
f 52/24/25 22/23/25 50/18/25 77/17/25
f 50/18/23 78/13/23 49/16/23 21/19/23
f 22/23/26 53/28/26 78/13/26 50/18/26
f 53/28/27 16/27/27 32/14/27 78/13/27
f 54/30/15 79/9/15 48/12/15 20/31/15
f 23/35/24 57/40/24 79/9/24 54/30/24
f 57/40/28 19/39/28 35/10/28 79/9/28
f 58/42/15 80/5/15 41/8/15 13/43/15
f 24/47/15 61/52/15 80/5/15 58/42/15
f 61/52/2 18/51/2 34/6/2 80/5/2
f 62/54/23 81/1/23 45/4/23 17/55/23
f 25/59/23 65/64/23 81/1/23 62/54/23
f 65/64/1 12/63/1 28/2/1 81/1/1
